<?xml version="1.0" encoding="UTF-8" standalone="no"?>
<svg
   viewBox="-2.8 0 1502.6 294.6"
   width="2500"
   height="489"
   version="1.1"
   id="svg148"
   sodipodi:docname="blablacar-logo-2019_1.svg"
   inkscape:version="1.2.2 (b0a8486, 2022-12-01)"
   xmlns:inkscape="http://www.inkscape.org/namespaces/inkscape"
   xmlns:sodipodi="http://sodipodi.sourceforge.net/DTD/sodipodi-0.dtd"
   xmlns="http://www.w3.org/2000/svg"
   xmlns:svg="http://www.w3.org/2000/svg">
  <defs
     id="defs152">
    <rect
       x="2371.3816"
       y="231.58504"
       width="1286.64"
       height="287.10908"
       id="rect568" />
    <rect
       x="2376.4671"
       y="258.41499"
       width="1186.0859"
       height="213.45394"
       id="rect510" />
  </defs>
  <sodipodi:namedview
     id="namedview150"
     pagecolor="#ffffff"
     bordercolor="#000000"
     borderopacity="0.25"
     inkscape:showpageshadow="2"
     inkscape:pageopacity="0.0"
     inkscape:pagecheckerboard="0"
     inkscape:deskcolor="#d1d1d1"
     showgrid="false"
     inkscape:zoom="0.17309974"
     inkscape:cx="1013.8663"
     inkscape:cy="-54.881654"
     inkscape:window-width="1366"
     inkscape:window-height="704"
     inkscape:window-x="0"
     inkscape:window-y="27"
     inkscape:window-maximized="1"
     inkscape:current-layer="text566" />
  <text
     xml:space="preserve"
     transform="matrix(0.60245399,0,0,0.60245399,-4.5674847,0)"
     id="text508"
     style="fill:#000000;white-space:pre;shape-inside:url(#rect510)" />
  <g
     aria-label="GNOLE"
     transform="matrix(1.3362414,0,0,1.3362414,-1749.8823,-201.49258)"
     id="text566"
     style="font-size:154.57px;white-space:pre;shape-inside:url(#rect568);fill:#054752;stroke-width:43.8152">
    <g
       id="g1884"
       transform="matrix(0.6397906,0,0,0.6397906,876.29902,54.781951)">
      <path
         d="M 956.57141,330.07424 C 951.03348,296.69704 919.45236,274.246 886.22484,279.9336 l 9.72878,-55.90307 -35.69715,-6.36113 c -2.99347,6.73531 -16.46409,37.41839 -22.97489,71.84331 13.24611,8.98041 22.97489,23.1994 25.89353,40.41186 2.99347,18.18533 -2.24511,35.92165 -13.17127,49.09292 2.69412,3.29282 5.76243,6.28629 9.20492,8.98041 13.8448,10.92617 30.68308,15.19187 47.14717,12.42291 33.45204,-5.53792 55.90307,-37.11904 50.14064,-70.34657 z"
         fill="#054752"
         id="path140"
         style="stroke-width:32.7899" />
      <path
         d="m 836.68289,293.40422 0.74837,-3.74184 c -12.72226,-8.68107 -28.43798,-12.57258 -44.7524,-9.87846 l 9.72878,-55.82823 -35.6223,-6.28629 c -3.14315,6.95982 -17.51181,39.66349 -23.64842,75.58514 -4.93923,29.03667 -4.71472,60.16877 10.47715,82.09595 3.36765,4.71472 7.334,8.98041 12.12355,12.72225 13.91964,10.92617 30.83276,15.19187 47.29685,12.42291 15.11703,-2.46962 27.91412,-10.47715 36.96937,-21.32849 l -2.8438,-3.74183 c -15.2667,-21.85234 -15.49122,-52.98444 -10.47715,-81.94627 z"
         fill="#2dbeff"
         id="path142"
         style="stroke-width:32.7899" />
      <path
         d="m 863.24994,330.07424 c -2.99347,-17.21246 -12.72225,-31.43145 -25.89352,-40.41186 l -0.74837,3.74184 c -4.86439,29.03667 -4.63988,60.16877 10.62682,82.09594 l 2.76897,3.74184 c 10.92616,-13.47062 16.31441,-31.1321 13.17127,-49.39227 z"
         fill="#9ef769"
         id="path144"
         style="stroke-width:32.7899" />
      <path
         d="m 1420.5594,281.13099 h -0.3742 l -20.5801,3.59216 c -0.7483,0.14968 -1.4967,0.74837 -1.4967,1.49674 v 148.02714 c 0,0.89804 0.7484,1.64641 1.7212,1.64641 h 20.7298 c 0.7484,0 1.4968,-0.74837 1.4968,-1.64641 V 282.7774 c 0,-0.89805 -0.7484,-1.64641 -1.7213,-1.64641 z m -42.4324,87.85837 c -2.9935,-6.13661 -7.1844,-11.37519 -12.3481,-15.71572 l -1.4967,-1.12255 c -2.2451,-1.72125 -4.7148,-3.29282 -7.334,-4.49021 l -0.7484,-0.37418 0.5239,-0.52386 c 2.3947,-2.76896 4.4902,-5.98694 5.9869,-9.42943 2.2451,-5.01407 3.3676,-10.17781 3.3676,-15.56605 0,-5.83727 -1.1973,-11.22552 -3.4424,-16.46409 -2.2451,-5.23858 -5.4631,-9.57911 -9.5043,-13.32095 -3.7419,-3.44249 -8.2321,-6.13662 -13.321,-8.08237 -5.0889,-1.94576 -11.45,-2.99347 -18.9337,-2.99347 h -45.3511 c -0.898,0 -1.6464,0.74836 -1.6464,1.72124 V 434.1722 c 0,0.89804 0.7484,1.6464 1.6464,1.6464 h 55.978 c 8.0075,0 14.668,-0.89804 20.0562,-2.69412 5.2386,-1.79608 10.103,-4.49021 14.219,-7.85786 5.0889,-4.2657 9.2798,-9.57911 12.3481,-15.71572 0.7483,-1.49674 1.2722,-2.76896 1.7961,-4.11603 l 0.2245,-0.59869 0.3741,-1.04772 c 1.4968,-4.63988 2.3948,-9.50427 2.3948,-14.59317 -0.1496,-7.334 -1.7212,-14.21898 -4.8644,-20.3556 z m -80.0754,-65.10799 h 19.0086 c 5.9869,0 10.4771,0.52385 13.4706,1.49673 2.8438,1.12255 5.0889,2.61929 6.7353,4.49021 3.218,3.59216 4.8644,7.78302 4.8644,12.72225 0,4.78956 -1.4968,8.98041 -4.8644,12.57258 -1.6464,1.87092 -3.7418,3.36765 -6.7353,4.49021 -2.0954,0.74836 -5.2386,1.19738 -8.9804,1.49673 h -23.7233 v -37.26871 z m 58.3727,93.99499 c -1.1974,2.99347 -2.8438,5.53792 -4.9392,7.78302 -2.3948,2.24511 -5.2386,4.19086 -8.7559,5.53793 -3.5174,1.27222 -8.6811,2.02059 -15.5661,2.02059 h -29.1863 v -49.16776 h 29.1863 c 6.885,0 11.9739,0.74836 15.4912,2.02059 3.3677,1.34706 6.2863,3.21798 8.6063,5.53792 2.0954,2.2451 3.7418,4.78955 5.014,7.63335 1.2723,2.76896 1.871,5.98694 1.871,9.20493 0,3.36765 -0.5987,6.51079 -1.871,9.42943 z m 163.1442,-62.56355 c -7.9327,-7.25916 -18.8589,-10.85133 -32.4792,-10.85133 -12.2732,0 -22.3013,2.99347 -29.9347,8.98041 -6.7353,5.01407 -11.5997,11.45003 -14.219,19.08338 -0.2993,0.74837 0.2245,1.72125 1.1226,1.87092 l 19.3079,3.36766 c 0.7483,0.14967 1.2722,-0.22451 1.4967,-0.74837 3.9663,-8.7559 11.3752,-13.0216 22.3014,-13.0216 7.4836,0 13.1712,2.02059 17.2124,6.13662 4.0412,4.11602 5.987,9.5791 5.987,16.46409 v 3.89151 c -10.103,-2.99347 -19.757,-4.49021 -28.7374,-4.49021 -12.7222,0 -23.349,3.14315 -31.8056,9.57911 -8.3817,6.43596 -12.7222,15.49121 -12.7222,27.09091 0,11.07585 3.9663,19.75691 11.6745,26.0432 7.7082,6.28629 16.9879,9.42944 27.9141,9.42944 13.9196,0 25.4445,-4.04119 33.8262,-12.42291 v 8.38172 c 0,1.04771 0.8981,1.87092 1.8709,1.87092 h 17.8112 c 0.9729,0 1.7961,-0.74837 1.7961,-1.79608 v -69.07435 c -0.2245,-12.72225 -4.2657,-22.60071 -12.3481,-29.78504 z m -18.1105,74.83678 c -5.987,5.01406 -13.2461,7.48368 -21.9272,7.48368 -6.3611,0 -11.2255,-1.49674 -14.668,-4.34053 -3.2928,-2.8438 -5.0141,-6.73531 -5.0141,-11.67454 0,-5.38825 2.2451,-9.42944 6.436,-12.12356 4.1909,-2.69412 9.7288,-4.11602 16.4641,-4.11602 8.4565,0 17.7363,1.49673 27.6896,4.4902 0,8.75591 -2.9935,15.41638 -8.9804,20.20593 z m -358.543,-129.0186 h -0.2994 l -20.6549,3.59216 c -0.7484,0.14968 -1.4968,0.74837 -1.4968,1.49674 v 148.02714 c 0,0.89804 0.7484,1.64641 1.7213,1.64641 h 20.7298 c 0.7483,0 1.4967,-0.74837 1.4967,-1.64641 V 282.7774 c 0,-0.89805 -0.7484,-1.64641 -1.6464,-1.64641 z m -42.657,87.85837 c -2.9935,-6.13661 -7.0346,-11.37519 -12.1984,-15.71572 l -1.4967,-1.12255 c -2.2451,-1.72125 -4.7147,-3.29282 -7.334,-4.49021 l -0.7484,-0.37418 0.5239,-0.52386 c 2.3947,-2.76896 4.4902,-5.98694 5.9869,-9.42943 2.2451,-5.01407 3.3677,-10.17781 3.3677,-15.56605 0,-5.83727 -1.1226,-11.22552 -3.3677,-16.46409 -2.2451,-5.23858 -5.4631,-9.57911 -9.5043,-13.32095 -3.7418,-3.44249 -8.232,-6.13662 -13.1712,-8.08237 -5.0889,-1.94576 -11.4501,-2.99347 -18.9337,-2.99347 h -45.27628 c -0.89804,0 -1.64641,0.74836 -1.64641,1.72124 V 434.1722 c 0,0.89804 0.74837,1.6464 1.64641,1.6464 h 55.75338 c 8.0076,0 14.668,-0.89804 20.0563,-2.69412 5.2385,-1.79608 10.1029,-4.49021 14.219,-7.85786 5.0889,-4.2657 9.2797,-9.57911 12.348,-15.71572 0.7484,-1.49674 1.2723,-2.76896 1.7961,-4.11603 l 0.2245,-0.59869 c 0,-0.29935 0.1497,-0.74837 0.2994,-1.04772 1.4967,-4.63988 2.3947,-9.50427 2.3947,-14.59317 -0.1496,-7.334 -1.7212,-14.21898 -4.8643,-20.3556 z m -80.0753,-65.10799 h 19.1582 c 5.9869,0 10.4771,0.52385 13.4706,1.49673 2.8438,1.12255 5.0889,2.61929 6.7353,4.49021 3.218,3.59216 4.8644,7.78302 4.8644,12.72225 0,4.78956 -1.4967,8.98041 -4.8644,12.57258 -1.6464,1.87092 -3.7418,3.36765 -6.7353,4.49021 -2.0954,0.74836 -5.2386,1.19738 -8.9804,1.49673 h -23.6484 z m 58.5972,93.99499 c -1.2723,2.99347 -2.9935,5.53792 -5.0141,7.78302 -2.3948,2.24511 -5.2386,4.19086 -8.7559,5.53793 -3.5173,1.27222 -8.6811,2.02059 -15.5661,2.02059 h -29.1863 v -49.16776 h 29.1863 c 6.9599,0 12.1236,0.74836 15.5661,2.02059 3.5173,1.34706 6.436,3.21798 8.7559,5.53792 2.0954,2.2451 3.7418,4.78955 5.0141,7.63335 1.2722,2.76896 1.8709,5.98694 1.8709,9.20493 0,3.36765 -0.7484,6.51079 -1.9458,9.42943 z m 163.1441,-62.56355 c -8.0075,-7.25916 -18.9337,-10.85133 -32.554,-10.85133 -12.1984,0 -22.2265,2.99347 -29.9347,8.98041 -6.7353,5.01407 -11.5248,11.45003 -14.219,19.08338 -0.2245,0.74837 0.2994,1.72125 1.1974,1.87092 l 19.2331,3.36766 c 0.7483,0.14967 1.4967,-0.22451 1.7212,-0.74837 3.8915,-8.7559 11.2255,-13.0216 22.2265,-13.0216 7.2592,0 13.0216,2.02059 17.0628,6.13662 4.0412,4.11602 6.1366,9.5791 6.1366,16.46409 v 3.89151 c -10.2526,-2.99347 -19.9065,-4.49021 -28.8869,-4.49021 -12.7223,0 -23.3491,3.14315 -31.8057,9.57911 -8.6062,6.43596 -12.7222,15.49121 -12.7222,27.09091 0,11.07585 3.7418,19.75691 11.45,26.0432 7.7082,6.28629 16.9879,9.42944 27.9141,9.42944 13.9945,0 25.4445,-4.04119 33.9011,-12.42291 v 8.38172 c 0,1.04771 0.7483,1.87092 1.7212,1.87092 h 17.8112 c 1.0477,0 1.8709,-0.74837 1.8709,-1.79608 v -69.07435 c -0.2245,-12.72225 -4.1909,-22.60071 -12.2732,-29.78504 z m -18.2601,74.83678 c -5.987,5.01406 -13.4707,7.48368 -22.0769,7.48368 -6.3611,0 -11.2255,-1.49674 -14.668,-4.34053 -3.4425,-2.8438 -5.2386,-6.73531 -5.2386,-11.67454 0,-5.38825 2.2451,-9.42944 6.5108,-12.12356 4.2657,-2.69412 9.7288,-4.11602 16.4641,-4.11602 8.5314,0 17.8112,1.49673 27.6896,4.4902 0.1497,8.75591 -2.8438,15.41638 -8.8307,20.20593 z m 546.7575,-74.83678 c -8.0076,-7.25916 -18.9337,-10.85133 -32.554,-10.85133 -12.1236,0 -22.1517,2.99347 -29.9348,8.98041 -6.7353,5.01407 -11.45,11.45003 -14.2189,19.08338 -0.1497,0.74837 0.3741,1.72125 1.2722,1.87092 l 19.3079,3.36766 c 0.7483,0.14967 1.2722,-0.22451 1.4967,-0.74837 3.9664,-8.7559 11.3752,-13.0216 22.3014,-13.0216 7.334,0 13.0964,2.02059 17.2124,6.13662 3.9664,4.11602 5.987,9.5791 5.987,16.46409 v 3.89151 c -10.1778,-2.99347 -19.8318,-4.49021 -28.8122,-4.49021 -12.7222,0 -23.3491,3.14315 -31.8056,9.57911 -8.4566,6.43596 -12.7223,15.49121 -12.7223,27.09091 0,11.07585 3.8915,19.75691 11.5997,26.0432 7.7082,6.28629 16.988,9.42944 27.9141,9.42944 14.0694,0 25.4445,-4.04119 33.9759,-12.42291 v 8.38172 c 0,1.04771 0.7484,1.87092 1.7961,1.87092 h 17.8112 c 0.9729,0 1.7961,-0.74837 1.7961,-1.79608 v -69.07435 c -0.2994,-12.72225 -4.3406,-22.60071 -12.3481,-29.78504 z m -18.3351,74.83678 c -5.9869,5.01406 -13.1712,7.48368 -21.8523,7.48368 -6.3611,0 -11.2255,-1.49674 -14.668,-4.34053 -3.2928,-2.8438 -5.0141,-6.73531 -5.0141,-11.67454 0,-5.38825 2.2451,-9.42944 6.436,-12.12356 4.2657,-2.69412 9.7288,-4.11602 16.4641,-4.11602 8.5314,0 17.9608,1.49673 27.6896,4.4902 0,8.75591 -2.9935,15.41638 -8.9804,20.20593 z"
         fill="#054752"
         id="path146"
         sodipodi:nodetypes="cccsssssscccccccccsscsssssssccscccccccsccscccccccccsccscccscccscccccssscscssscssssccccscsssccccccsssssscccccccccssccssssssccscccccccsccsccccccccsccscccscccscccccssscscssscssssccccsssssccccscccccscscssssscssssccccscscsccc"
         style="stroke-width:32.7899" />
      <path
         d="m 1658.2812,369.14463 c -2.9865,-6.13662 -7.1675,-11.37519 -12.3191,-15.71573 l -1.4932,-1.12255 c -2.2399,-1.72124 -4.7037,-3.29282 -7.3168,-4.4902 l -0.7466,-0.37419 0.5226,-0.52386 c 2.3892,-2.76896 4.4797,-5.98694 5.9729,-9.42943 2.2398,-5.01406 3.3597,-10.1778 3.3597,-15.56605 0,-5.83727 -1.1945,-11.22552 -3.4344,-16.46409 -2.2398,-5.23857 -5.4502,-9.57911 -9.482,-13.32094 -3.733,-3.4425 -8.2126,-6.13662 -13.2896,-8.08237 -5.077,-1.94576 -11.4232,-2.99347 -18.8893,-2.99347 h -45.2447 c -0.8959,0 -1.6425,0.74836 -1.6425,1.72124 v 151.54447 c 0,0.89804 0.7466,1.64641 1.6425,1.64641 h 55.8466 c 7.9888,0 14.6336,-0.89804 20.0092,-2.69413 5.2262,-1.79608 10.0792,-4.4902 14.1856,-7.85786 5.0769,-4.26569 9.258,-9.5791 12.3191,-15.71572 0.7466,-1.49674 1.2692,-2.76896 1.7918,-4.11602 l 0.224,-0.5987 0.3734,-1.04771 c 1.4932,-4.63988 2.3891,-9.50427 2.3891,-14.59317 -0.1493,-7.33401 -1.7172,-14.21899 -4.853,-20.35561 z m -79.8874,-65.108 h 18.9639 c 5.9729,0 10.4525,0.52386 13.439,1.49674 2.8371,1.12255 5.077,2.61928 6.7195,4.4902 3.2104,3.59217 4.853,7.78303 4.853,12.72226 0,4.78955 -1.4933,8.98041 -4.853,12.57257 -1.6425,1.87092 -3.7331,3.36766 -6.7195,4.49021 -2.0905,0.74837 -5.2262,1.19739 -8.9593,1.49674 h -23.6676 v -37.26872 z m 58.2356,93.99499 c -1.1945,2.99347 -2.8371,5.53792 -4.9276,7.78303 -2.3892,2.2451 -5.2263,4.19086 -8.7353,5.53792 -3.5091,1.27222 -8.6607,2.02059 -15.5295,2.02059 h -29.1179 V 364.2054 h 29.1179 c 6.8688,0 11.9457,0.74837 15.4548,2.02059 3.3597,1.34706 6.2715,3.21798 8.586,5.53792 2.0905,2.24511 3.7331,4.78956 5.0023,7.63336 1.2693,2.76896 1.8665,5.98694 1.8665,9.20492 0,3.36765 -0.5972,6.5108 -1.8665,9.42943 z"
         style="fill:#054752;stroke-width:32.7899"
         id="path416"
         sodipodi:nodetypes="cccccccsscsssssssccscccccccsccscccccccccsccscccscc" />
      <path
         d="m 1917.5931,426.84544 q -10.8682,5.28316 -22.5666,7.92473 -11.6984,2.64158 -24.1516,2.64158 -28.1516,0 -44.6049,-15.69851 -16.4532,-15.77399 -16.4532,-42.71808 0,-27.24599 16.7551,-42.86903 16.7552,-15.62304 45.888,-15.62304 11.2456,0 21.51,2.11326 10.3399,2.11326 19.4722,6.26431 v 23.32136 q -9.4342,-5.35863 -18.793,-8.00021 -9.2832,-2.64158 -18.642,-2.64158 -17.3589,0 -26.7931,9.7361 -9.3587,9.66063 -9.3587,27.69883 0,17.88725 9.0568,27.62335 9.0569,9.7361 25.7365,9.7361 4.5284,0 8.3776,-0.52832 3.9246,-0.60379 7.019,-1.81137 v -21.88735 h -17.7363 v -19.4722 h 45.2842 z"
         style="font-weight:bold;font-size:154.57px;-inkscape-font-specification:'sans-serif Bold';white-space:pre;shape-inside:url(#rect568);fill:#054752;stroke-width:43.8152"
         id="path1729" />
      <path
         d="m 1943.1787,322.54088 h 32.4537 l 40.9821,77.285 v -77.285 h 27.5479 v 112.68214 h -32.4536 l -40.9822,-77.28501 v 77.28501 h -27.5479 z"
         style="font-weight:bold;font-size:154.57px;-inkscape-font-specification:'sans-serif Bold';white-space:pre;shape-inside:url(#rect568);fill:#054752;stroke-width:43.8152"
         id="path1731" />
      <path
         d="m 2124.0135,341.56023 q -13.2833,0 -20.6043,9.81158 -7.3209,9.81157 -7.3209,27.62335 0,17.7363 7.3209,27.54787 7.321,9.81158 20.6043,9.81158 13.3589,0 20.6798,-9.81158 7.3209,-9.81157 7.3209,-27.54787 0,-17.81178 -7.3209,-27.62335 -7.3209,-9.81158 -20.6798,-9.81158 z m 0,-21.05714 q 27.1705,0 42.5672,15.54757 15.3966,15.54757 15.3966,42.9445 0,27.32145 -15.3966,42.86902 -15.3967,15.54757 -42.5672,15.54757 -27.095,0 -42.5671,-15.54757 -15.3966,-15.54757 -15.3966,-42.86902 0,-27.39693 15.3966,-42.9445 15.4721,-15.54757 42.5671,-15.54757 z"
         style="font-weight:bold;font-size:154.57px;-inkscape-font-specification:'sans-serif Bold';white-space:pre;shape-inside:url(#rect568);fill:#054752;stroke-width:43.8152"
         id="path1733" />
      <path
         d="m 2203.9401,322.54088 h 29.0574 v 90.71931 h 51.0201 v 21.96283 h -80.0775 z"
         style="font-weight:bold;font-size:154.57px;-inkscape-font-specification:'sans-serif Bold';white-space:pre;shape-inside:url(#rect568);fill:#054752;stroke-width:43.8152"
         id="path1735" />
      <path
         d="m 2302.4332,322.54088 h 78.4171 v 21.96283 h -49.3597 v 20.98167 h 46.4162 v 21.96282 h -46.4162 v 25.81199 h 51.0201 v 21.96283 h -80.0775 z"
         style="font-weight:bold;font-size:154.57px;-inkscape-font-specification:'sans-serif Bold';white-space:pre;shape-inside:url(#rect568);fill:#054752;stroke-width:43.8152"
         id="path1737" />
    </g>
  </g>
</svg>
